<?xml version="1.0" encoding="utf-8"?>
<!-- Generator: Adobe Illustrator 21.0.2, SVG Export Plug-In . SVG Version: 6.00 Build 0)  -->
<svg version="1.1" id="Layer_1" xmlns="http://www.w3.org/2000/svg" xmlns:xlink="http://www.w3.org/1999/xlink" x="0px" y="0px"
	 viewBox="0 0 1361 700" style="enable-background:new 0 0 1361 700;" xml:space="preserve">
<style type="text/css">
	.st0{fill:none;stroke:#000000;stroke-miterlimit:10;}
	.st1{fill:none;stroke:#8E8E8E;stroke-miterlimit:10;}
	.st2{font-family:'Tahoma';}
	.st3{font-size:42.4126px;}
	.st4{font-size:18px;}
	.st5{font-size:20.2715px;}
	.st6{fill:#FFFFFF;stroke:#000000;stroke-miterlimit:10;}
	.st7{stroke:#FFFFFF;stroke-miterlimit:10;}
	.st8{font-size:33px;}
	.st9{fill:#B5B5B5;}
	.st10{font-size:19.094px;}
	.st11{fill:#13D863;stroke:#2D2424;stroke-miterlimit:10;}
	.st12{stroke:#000000;stroke-width:4;stroke-miterlimit:10;}
	.st13{stroke:#000000;stroke-miterlimit:10;}
	.st14{fill:none;stroke:#A5A5A5;stroke-miterlimit:10;}
	.st15{fill:none;stroke:#999999;stroke-width:2;stroke-miterlimit:10;}
</style>
<line class="st0" x1="0" y1="112.5" x2="1363" y2="112.5"/>
<path class="st0" d="M1314.5,501H880c-6.6,0-12-5.4-12-12V152.5c0-6.6,5.4-12,12-12h434.5c6.6,0,12,5.4,12,12V489
	C1326.5,495.6,1321.1,501,1314.5,501z"/>
<path class="st0" d="M937.5,604.5h-56c-6.6,0-12-5.4-12-12v-56c0-6.6,5.4-12,12-12h56c6.6,0,12,5.4,12,12v56
	C949.5,599.1,944.1,604.5,937.5,604.5z"/>
<path class="st0" d="M1034.5,604.5h-56c-6.6,0-12-5.4-12-12v-56c0-6.6,5.4-12,12-12h56c6.6,0,12,5.4,12,12v56
	C1046.5,599.1,1041.1,604.5,1034.5,604.5z"/>
<path class="st0" d="M1134.5,604.5h-56c-6.6,0-12-5.4-12-12v-56c0-6.6,5.4-12,12-12h56c6.6,0,12,5.4,12,12v56
	C1146.5,599.1,1141.1,604.5,1134.5,604.5z"/>
<path class="st0" d="M1227.5,604.5h-56c-6.6,0-12-5.4-12-12v-56c0-6.6,5.4-12,12-12h56c6.6,0,12,5.4,12,12v56
	C1239.5,599.1,1234.1,604.5,1227.5,604.5z"/>
<ellipse class="st0" cx="1282" cy="564.5" rx="24" ry="26.4"/>
<line class="st0" x1="1278.5" y1="555.5" x2="1289.6" y2="564.8"/>
<line class="st0" x1="1278.3" y1="574.6" x2="1289.8" y2="564.5"/>
<path class="st0" d="M1304.5,206.6H1287c-6.6,0-12-5.4-12-12v-24.9c0-6.6,5.4-12,12-12h17.5c6.6,0,12,5.4,12,12v24.9
	C1316.5,201.2,1311.1,206.6,1304.5,206.6z"/>
<path class="st0" d="M1304.5,263.9H1287c-6.6,0-12-5.4-12-12v-24.9c0-6.6,5.4-12,12-12h17.5c6.6,0,12,5.4,12,12v24.9
	C1316.5,258.5,1311.1,263.9,1304.5,263.9z"/>
<path class="st0" d="M1304.5,319.8H1287c-6.6,0-12-5.4-12-12v-24.9c0-6.6,5.4-12,12-12h17.5c6.6,0,12,5.4,12,12v24.9
	C1316.5,314.4,1311.1,319.8,1304.5,319.8z"/>
<path class="st0" d="M1304.5,379.2H1287c-6.6,0-12-5.4-12-12v-24.9c0-6.6,5.4-12,12-12h17.5c6.6,0,12,5.4,12,12v24.9
	C1316.5,373.8,1311.1,379.2,1304.5,379.2z"/>
<path class="st1" d="M1234.3,485.2H912.6c-16.6,0-30.2-13.6-30.2-30.2V186.6c0-16.6,13.6-30.2,30.2-30.2h321.7
	c16.6,0,30.2,13.6,30.2,30.2v268.3C1264.5,471.5,1250.9,485.2,1234.3,485.2z"/>
<path class="st0" d="M835.2,154.5v439c0,6.6-5.4,12-12,12H332V528c0-6.6-5.4-12-12-12c-95.5,0.5-191,1-286.5,1.5
	c-2.1,0-5,0.2-8.2,1.3c-1.5,0.5-2.7,1.1-3.8,1.7c-0.1-122-0.2-244-0.3-366c0-6.6,5.4-12,12-12h790
	C829.8,142.5,835.2,147.9,835.2,154.5z"/>
<text transform="matrix(1 0 0 1 51.3252 202.1885)" class="st2 st3">leather hesam</text>
<path class="st0" d="M610,225.5c12.7,0,25.3,0,38,0"/>
<path class="st0" d="M174,225.5c140,0,280,0,420,0"/>
<path class="st0" d="M304.5,606.5h-263c-6.6,0-12-5.4-12-12v-52c0-6.6,5.4-12,12-12h263c6.6,0,12,5.4,12,12v52
	C316.5,601.1,311.1,606.5,304.5,606.5z"/>
<path class="st0" d="M227.5,301.5h-168c-6.6,0-12-5.4-12-12v-15c0-6.6,5.4-12,12-12h168c6.6,0,12,5.4,12,12v15
	C239.5,296.1,234.1,301.5,227.5,301.5z"/>
<path class="st0" d="M783.5,572.5h-410c-3.3,0-6-2.7-6-6l0,0c0-3.3,2.7-6,6-6h410c3.3,0,6,2.7,6,6l0,0
	C789.5,569.8,786.8,572.5,783.5,572.5z"/>
<polygon class="st0" points="392,554.6 384.8,550.8 377.6,554.7 378.9,546.6 373,541 381.1,539.7 384.6,532.4 388.3,539.7 
	396.4,540.8 390.6,546.5 "/>
<polygon class="st0" points="418.8,554.6 411.6,550.8 404.4,554.7 405.7,546.6 399.8,541 407.9,539.7 411.4,532.4 415.1,539.7 
	423.2,540.8 417.4,546.5 "/>
<polygon class="st0" points="445.6,554.6 438.4,550.8 431.2,554.7 432.5,546.6 426.6,541 434.7,539.7 438.2,532.4 441.9,539.7 
	450,540.8 444.2,546.5 "/>
<polygon class="st0" points="471.6,554.6 464.4,550.8 457.2,554.7 458.5,546.6 452.6,541 460.7,539.7 464.2,532.4 467.9,539.7 
	476,540.8 470.2,546.5 "/>
<polygon class="st0" points="498.1,554.6 490.8,550.8 483.6,554.7 484.9,546.6 479,541 487.1,539.7 490.6,532.4 494.3,539.7 
	502.4,540.8 496.6,546.5 "/>
<polygon class="st0" points="524.5,554.6 517.2,550.8 510,554.7 511.3,546.6 505.4,541 513.5,539.7 517,532.4 520.7,539.7 
	528.8,540.8 523,546.5 "/>
<text transform="matrix(1 0 0 1 744.7178 554)" class="st2 st4">90%</text>
<text transform="matrix(1 0 0 1 92.4551 287.5054)" class="st2 st5">information</text>
<path class="st0" d="M227.5,348.5h-168c-6.6,0-12-5.4-12-12v-15c0-6.6,5.4-12,12-12h168c6.6,0,12,5.4,12,12v15
	C239.5,343.1,234.1,348.5,227.5,348.5z"/>
<text transform="matrix(1 0 0 1 97.3945 334.5054)" class="st2 st5">comments</text>
<path class="st0" d="M227.5,396.5h-168c-6.6,0-12-5.4-12-12v-15c0-6.6,5.4-12,12-12h168c6.6,0,12,5.4,12,12v15
	C239.5,391.1,234.1,396.5,227.5,396.5z"/>
<text transform="matrix(1 0 0 1 91.292 382.5054)" class="st2 st5">rents tabels</text>
<path class="st0" d="M227.5,444.5h-168c-6.6,0-12-5.4-12-12v-15c0-6.6,5.4-12,12-12h168c6.6,0,12,5.4,12,12v15
	C239.5,439.1,234.1,444.5,227.5,444.5z"/>
<text transform="matrix(1 0 0 1 81.498 430.5054)" class="st2 st5">users pictures</text>
<path class="st0" d="M227.5,492.5h-168c-6.6,0-12-5.4-12-12v-15c0-6.6,5.4-12,12-12h168c6.6,0,12,5.4,12,12v15
	C239.5,487.1,234.1,492.5,227.5,492.5z"/>
<text transform="matrix(1 0 0 1 103.3384 478.5054)" class="st2 st5">more q.a</text>
<path class="st0" d="M804.5,498.5h-533c-6.6,0-12-5.4-12-12c0-63.1,0-126.2,0-189.3c0-7.6,0-15.1,0-22.7c0-0.8,0.1-5,3.5-8.5
	c2.2-2.2,5.2-3.5,8.5-3.5h533c6.6,0,12,5.4,12,12v212C816.5,493.1,811.1,498.5,804.5,498.5z"/>
<circle class="st6" cx="259.5" cy="281.5" r="12"/>
<circle class="st7" cx="259.5" cy="281.5" r="9"/>
<path class="st0" d="M773.5,305.5h-118c-5,0-9-4-9-9l0,0c0-5,4-9,9-9h118c5,0,9,4,9,9l0,0C782.5,301.5,778.5,305.5,773.5,305.5z"/>
<path class="st0" d="M773.5,344.5h-118c-5,0-9-4-9-9l0,0c0-5,4-9,9-9h118c5,0,9,4,9,9l0,0C782.5,340.5,778.5,344.5,773.5,344.5z"/>
<path class="st0" d="M773.5,384.5h-118c-5,0-9-4-9-9l0,0c0-5,4-9,9-9h118c5,0,9,4,9,9l0,0C782.5,380.5,778.5,384.5,773.5,384.5z"/>
<path class="st0" d="M773.5,423.5h-118c-5,0-9-4-9-9l0,0c0-5,4-9,9-9h118c5,0,9,4,9,9l0,0C782.5,419.5,778.5,423.5,773.5,423.5z"/>
<line class="st0" x1="296.5" y1="295.5" x2="619.5" y2="295.5"/>
<line class="st0" x1="297" y1="334.5" x2="620" y2="334.5"/>
<line class="st0" x1="297" y1="374.5" x2="620" y2="374.5"/>
<line class="st0" x1="297" y1="413.5" x2="620" y2="413.5"/>
<path class="st0" d="M805,391.5L805,391.5c-1.4,0-2.5-1.1-2.5-2.5V282c0-1.4,1.1-2.5,2.5-2.5l0,0c1.4,0,2.5,1.1,2.5,2.5v107
	C807.5,390.4,806.4,391.5,805,391.5z"/>
<line class="st0" x1="296.5" y1="453.5" x2="777.5" y2="453.5"/>
<line class="st0" x1="297.5" y1="488.5" x2="779.5" y2="488.5"/>
<text transform="matrix(1 0 0 1 99.5591 574.5791)" class="st2 st8">234,000,000</text>
<text transform="matrix(1 0 0 1 137.9297 601.4883)" class="st9 st2 st10">234,000,000</text>
<text transform="matrix(1 0 0 1 46.166 566.0781)"><tspan x="0" y="0" class="st2 st4">tom</tspan><tspan x="1.7" y="21.6" class="st2 st4">ans</tspan></text>
<line class="st6" x1="132" y1="594" x2="248" y2="594"/>
<circle class="st11" cx="786" cy="190" r="21.5"/>
<path d="M1308,186.5l-10.6,11.6l-11.6-10.6c-3.3-2.9-3.7-7.8-1.1-11c2.8-3.4,8.2-3.9,11.7-0.6c3.3-3.6,8.9-3.5,11.9-0.2
	C1310.8,178.6,1310.9,183.3,1308,186.5z"/>
<path d="M1308,297.9l-10.6,11.6l-11.6-10.6c-3.3-2.9-3.7-7.8-1.1-11c2.8-3.4,8.2-3.9,11.7-0.6c3.3-3.6,8.9-3.5,11.9-0.2
	C1310.8,289.9,1310.9,294.7,1308,297.9z"/>
<path d="M1308,358.1l-10.6,11.6l-11.6-10.6c-3.3-2.9-3.7-7.8-1.1-11c2.8-3.4,8.2-3.9,11.7-0.6c3.3-3.6,8.9-3.5,11.9-0.2
	C1310.8,350.2,1310.9,355,1308,358.1z"/>
<path d="M1306.2,241.9l-10.6,11.6L1284,243c-3.3-2.9-3.7-7.8-1.1-11c2.8-3.4,8.2-3.9,11.7-0.6c3.3-3.6,8.9-3.5,11.9-0.2
	C1309.1,234,1309.1,238.8,1306.2,241.9z"/>
<line class="st12" x1="1294.2" y1="442.2" x2="1294.2" y2="470"/>
<line class="st12" x1="1308.4" y1="454.9" x2="1280.6" y2="454.9"/>
<path class="st13" d="M1290.4,438.8L1290.4,438.8c-1.7,3,0.4,6.7,3.8,6.7l0,0c3.4,0,5.5-3.7,3.8-6.7l0,0
	C1296.3,435.9,1292.1,435.9,1290.4,438.8z"/>
<path class="st13" d="M1290.4,465.8L1290.4,465.8c-1.7,3,0.4,6.7,3.8,6.7l0,0c3.4,0,5.5-3.7,3.8-6.7l0,0
	C1296.3,462.9,1292.1,462.9,1290.4,465.8z"/>
<path class="st13" d="M1304.9,452.3L1304.9,452.3c-1.7,3,0.4,6.7,3.8,6.7l0,0c3.4,0,5.5-3.7,3.8-6.7l0,0
	C1310.8,449.4,1306.6,449.4,1304.9,452.3z"/>
<path class="st13" d="M1276.9,452.3L1276.9,452.3c-1.7,3,0.4,6.7,3.8,6.7l0,0c3.4,0,5.5-3.7,3.8-6.7l0,0
	C1282.8,449.4,1278.6,449.4,1276.9,452.3z"/>
<line class="st0" x1="49.5" y1="241.5" x2="236.5" y2="241.5"/>
<line class="st0" x1="408.5" y1="213.5" x2="476.5" y2="213.5"/>
<path class="st0" d="M745.5,210.5h-59c-6,0-11-4.9-11-11v0c0-6,5-11,11-11h59c6,0,11,4.9,11,11v0
	C756.5,205.6,751.5,210.5,745.5,210.5z"/>
<line class="st14" x1="0.5" y1="614.5" x2="1365.5" y2="614.5"/>
<path class="st15" d="M251.5,690.6h-224c-6.6,0-12-5.4-12-12v-42.1c0-6.6,5.4-12,12-12h224c6.6,0,12,5.4,12,12v42.1
	C263.5,685.2,258.1,690.6,251.5,690.6z"/>
<path class="st15" d="M516.9,690.6h-224c-6.6,0-12-5.4-12-12v-42.1c0-6.6,5.4-12,12-12h224c6.6,0,12,5.4,12,12v42.1
	C528.9,685.2,523.5,690.6,516.9,690.6z"/>
<path class="st15" d="M787.8,690.6h-224c-6.6,0-12-5.4-12-12v-42.1c0-6.6,5.4-12,12-12h224c6.6,0,12,5.4,12,12v42.1
	C799.8,685.2,794.4,690.6,787.8,690.6z"/>
<path class="st15" d="M1055,690.6h-224c-6.6,0-12-5.4-12-12v-42.1c0-6.6,5.4-12,12-12h224c6.6,0,12,5.4,12,12v42.1
	C1067,685.2,1061.6,690.6,1055,690.6z"/>
<path class="st15" d="M1325,690.6h-224c-6.6,0-12-5.4-12-12v-42.1c0-6.6,5.4-12,12-12h224c6.6,0,12,5.4,12,12v42.1
	C1337,685.2,1331.6,690.6,1325,690.6z"/>
</svg>
